<?xml version="1.0" encoding="utf-8"?>
<svg width='800px' height="800px" viewBox="199.2665 98.7763 101.0451 160.2134" xmlns="http://www.w3.org/2000/svg">
  <path d="M 265.498 193.893 L 214.048 233.933 C 214.048 233.933 212.338 236.343 213.778 238.433 C 215.228 240.523 220.108 239.983 227.988 236.443 C 235.128 233.233 253.528 223.703 262.478 217.743 C 269.048 213.363 279.068 207.613 285.248 201.823 C 288.108 199.153 289.718 197.103 290.638 193.913 C 293.458 184.123 288.168 180.063 288.168 180.063 L 265.498 193.893 Z" fill="#ed6c31" style="transform-origin: 252.333px 209.861px;" transform="matrix(0.642787992954, -0.766043901443, 0.766043901443, 0.642787992954, -0.000008363571, -0.000002519538)"/>
  <path d="M 213.806 239.452 C 219.456 238.462 234.746 228.792 242.536 224.322 C 250.326 219.852 277.436 203.442 281.076 196.892 C 283.106 193.232 284.086 186.502 280.976 182.242 C 277.866 177.982 271.946 174.662 263.836 178.602 C 256.356 182.242 241.606 201.882 234.226 210.082 C 224.216 221.212 215.306 231.672 211.696 236.222 C 210.466 237.762 210.296 238.562 210.296 238.562 C 210.296 238.562 211.626 239.842 213.806 239.452 Z" fill="#ff8d02" style="transform-origin: 246.632px 208.184px;" transform="matrix(0.642787992954, -0.766043901443, 0.766043901443, 0.642787992954, -0.000031326763, 0.000008285084)"/>
  <path d="M 237.568 139.756 C 237.308 141.516 235.558 143.126 232.478 145.886 C 228.428 149.526 226.768 149.316 226.038 151.186 C 225.588 152.356 226.508 154.856 228.948 157.526 C 231.128 159.916 233.118 160.686 233.938 160.536 C 235.928 160.186 237.058 157.526 241.208 154.096 C 244.288 151.556 245.368 150.666 246.918 150.776 C 248.478 150.876 249.808 152.346 251.488 154.096 C 253.978 156.696 258.848 159.036 263.898 157.346 C 269.908 155.326 270.148 149.746 270.768 149.126 C 271.388 148.506 275.998 148.596 278.388 145.786 C 280.778 142.986 281.468 136.196 280.428 134.326 C 279.388 132.456 231.328 119.086 231.328 119.086 C 231.328 119.086 229.288 124.976 230.808 129.266 C 233.208 136.016 238.048 136.466 237.568 139.756 Z" fill="#2f7c31" style="transform-origin: 253.413px 139.82px;" transform="matrix(0.642787992954, -0.766043901443, 0.766043901443, 0.642787992954, -0.000009315108, 0.000001049877)"/>
  <path d="M 232.478 190.33 C 234.618 192.27 236.838 190.75 238.298 189.29 C 239.608 187.98 242.658 185.03 244.008 184.1 C 245.358 183.17 248.058 181.09 249.828 179.74 C 251.598 178.39 251.398 173.86 247.438 174.55 C 245.048 174.97 242.348 177.15 239.338 179.64 C 236.958 181.61 234.148 184.63 232.998 186.18 C 231.858 187.73 231.338 189.29 232.478 190.33 Z" fill="#ffa726" style="transform-origin: 241.367px 182.863px;" transform="matrix(0.642787992954, -0.766043901443, 0.766043901443, 0.642787992954, -0.00002617363, 0.000007848642)"/>
  <path d="M 246.631 208.889 C 245.161 207.419 243.751 208.419 241.751 210.599 C 239.751 212.779 239.511 214.289 240.691 215.419 C 242.341 217.009 244.101 215.009 245.511 213.419 C 246.921 211.829 248.281 210.539 246.631 208.889 Z" fill="#ffa726" style="transform-origin: 243.683px 212.098px;" transform="matrix(0.642787992954, -0.766043901443, 0.766043901444, 0.642787992954, -0.000031820984, 0.000004273687)"/>
  <path d="M 247.584 177.554 C 246.514 178.494 246.594 180.124 247.834 181.524 C 249.344 183.224 250.794 184.674 252.064 185.754 C 253.324 186.824 254.964 186.324 255.534 185.564 C 256.314 184.524 256.164 183.164 255.034 181.964 C 254.074 180.954 251.944 178.554 250.684 177.614 C 249.854 177.004 248.594 176.674 247.584 177.554 Z" fill="#ed6c31" style="transform-origin: 251.43px 181.691px;" transform="matrix(0.642787992954, -0.766043901443, 0.766043901444, 0.642787992954, -0.000008107861, 0.000002083102)"/>
  <path d="M 242.299 197.304 C 240.749 198.654 241.609 200.774 242.739 202.414 C 243.879 204.054 245.699 206.194 247.789 204.934 C 249.879 203.674 248.039 200.204 247.099 198.814 C 246.149 197.424 244.249 195.594 242.299 197.304 Z" fill="#ed6c31" style="transform-origin: 245.103px 200.963px;" transform="matrix(0.642787992954, -0.766043901443, 0.766043901443, 0.642787992954, -0.000026958856, 0.000006564723)"/>
  <path d="M 248.363 215.863 C 246.973 217.383 247.993 219.133 249.623 220.343 C 251.323 221.603 253.473 222.363 254.543 220.973 C 255.613 219.583 254.223 217.563 252.903 216.623 C 251.583 215.673 249.693 214.413 248.363 215.863 Z" fill="#ed6c31" style="transform-origin: 251.317px 218.462px;" transform="matrix(0.642787992954, -0.766043901444, 0.766043901443, 0.642787992954, -0.000017512393, 0.000009520604)"/>
  <path d="M 246.105 236.581 C 244.435 237.851 245.605 240.241 246.425 241.251 C 247.245 242.261 248.755 243.651 250.205 242.391 C 251.615 241.161 250.805 239.261 250.015 237.911 C 248.945 236.081 247.175 235.761 246.105 236.581 Z" fill="#ed6c31" style="transform-origin: 248.115px 239.525px;" transform="matrix(0.642787992954, -0.766043901443, 0.766043901444, 0.642787992954, -0.000021240399, 0.000002034762)"/>
  <path d="M 235.789 115.733 C 236.549 115.603 243.949 106.873 255.169 112.783 C 265.999 118.483 261.099 127.673 261.499 128.253 C 261.899 128.833 266.669 128.653 269.329 132.643 C 272.179 136.923 271.329 139.293 271.329 139.293 C 271.329 139.293 270.299 143.293 265.489 144.243 C 262.449 144.843 259.069 143.473 258.119 143.953 C 257.169 144.433 257.399 148.863 251.889 150.573 C 248.389 151.663 241.339 150.223 236.739 145.853 C 232.069 141.423 233.659 136.743 230.789 134.483 C 226.799 131.343 218.579 126.903 222.549 119.793 C 227.109 111.623 235.039 115.863 235.789 115.733 Z" fill="#709921" style="transform-origin: 246.47px 130.827px;" transform="matrix(0.642787992954, -0.766043901443, 0.766043901443, 0.642787992954, -0.000018682787, -0.000001336541)"/>
</svg>